<?xml version="1.0" standalone="no"?>
<!DOCTYPE svg PUBLIC "-//W3C//DTD SVG 20010904//EN"
 "http://www.w3.org/TR/2001/REC-SVG-20010904/DTD/svg10.dtd">
<svg version="1.0" xmlns="http://www.w3.org/2000/svg"
 width="700.000000pt" height="700.000000pt" viewBox="0 0 700.000000 700.000000"
 preserveAspectRatio="xMidYMid meet">
<metadata>
Created by potrace 1.11, written by Peter Selinger 2001-2013
</metadata>
<g transform="translate(0.000000,700.000000) scale(0.100000,-0.100000)"
fill="#000000" stroke="none">
<path d="M0 3500 l0 -3500 3500 0 3500 0 0 3500 0 3500 -3500 0 -3500 0 0
-3500z m1654 1630 c51 -20 109 -70 134 -117 5 -10 263 -652 573 -1428 l563
-1410 0 -75 c0 -62 -4 -84 -26 -126 -50 -95 -130 -146 -229 -146 -72 0 -138
31 -185 86 -27 32 -147 324 -589 1430 -305 765 -561 1411 -570 1435 -61 174
64 365 242 370 18 1 57 -8 87 -19z m3893 -42 c50 -25 83 -60 116 -122 17 -33
22 -57 21 -121 l0 -80 -516 -1370 c-284 -754 -523 -1388 -532 -1410 -23 -54
-81 -113 -136 -138 -114 -51 -279 5 -345 117 -13 23 -274 658 -581 1411 -524
1286 -558 1374 -562 1441 -5 92 21 157 88 217 78 71 174 86 266 43 99 -46 83
-11 564 -1196 244 -600 446 -1090 449 -1090 3 0 190 491 415 1091 251 670 420
1105 437 1128 75 104 202 136 316 79z m-1057 -99 c139 -63 200 -225 134 -357
-64 -129 -224 -183 -351 -119 -98 50 -147 137 -141 252 3 63 8 79 37 122 75
110 210 153 321 102z"/>
</g>
</svg>
